<?xml version="1.0" encoding="UTF-8"?>
<svg width="1200pt" height="1200pt" version="1.1" viewBox="0 0 1200 1200" xmlns="http://www.w3.org/2000/svg">
 <path fill="white" d="m537.02 978.09c-61.129 4.1992-100.79 22.211-127.67 20.809-55.523 1.4023-105.36-32.664-124.12-84.457-10.922-29.953-10.547-66.348 4.5703-95.93 16.332-32.004 48.434-45.91 81.289-53.375 91.824-21.098 208.67 17.914 247.02 39.852 20.16 11.195 32.762 42.277 29.676 74.566-3.168 40.777-33.133 74.375-71.113 91.176-12.129 4.9336-23.695 5.9531-39.656 7.3594zm391.11-723.79c-52.164 57.023-84.457 209.41-192.14 121.22-2.9883-1.957-7.3672-10.078-16.43-6.2539-12.227 8.6758-20.062 21-26.125 34.812-11.387 28.645-10.355 56.27-6.8984 86.316 16.332 117.49 87.625 269.04 89.027 313.09 7.9336 82.129-61.031 122.26-129.9 139.14 14.746-19.969 23.051-45.07 23.52-70.078 83.051-18.66 78.203-70.547 53.664-141.56-24.637-78.48-85.391-220.33-138.02-277.73-13.535-14.375-25.477-21.742-36.77-22.777-3.2656-0.27734-6.3477 0-9.5156 0.83984-157.25 45.539-231.8-88.934-303.29-45.168-3.457-68.125 66.445-84.18 122.34-85.859 145.3-8.0273 243.56 103.21 291.62 206.43 3.2656 8.8672 18.383 9.6133 20.258-3.168-5.1367-30.047-6.625-60.191-1.0312-90.059 17.543-107.51 125.99-224.53 234.61-211.46 24.637 2.6172 46.285 10.922 61.871 28.367-13.371 3.6406-25.5 11.574-36.793 23.898z"/>
</svg>
